<svg id="Capa_1" enable-background="new 0 0 512 512" height="512" viewBox="0 0 512 512" width="512" xmlns="http://www.w3.org/2000/svg"><g><g><path d="m512 80.678h-256l-20.016 175.322 20.016 175.346h256z" fill="#724435"/></g><g><path d="m0 80.678h256v350.668h-256z" fill="#9b5e34"/></g><path d="m482 110.678h-246.016l20.016 290.668h226z" fill="#9b5e34"/><g><path d="m30 110.678h226v290.668h-226z" fill="#c47e4e"/></g><path d="m451.976 341.298-215.992-20.016 20.016 50.04h195.976z" fill="#cde1e6"/><g><path d="m60.024 341.298v30.024h195.976v-50.04z" fill="#ebebf0"/></g><path d="m451.976 50.63h-123.301l-15 10.008-15-10.008h-42.675l-20.016 145.334 20.016 145.334h195.976z" fill="#ebebf0"/><g><path d="m60.024 50.63h195.976v290.668h-195.976z" fill="#fff5f5"/></g><g fill="#55696e"><path d="m94.731 276.642h126.561v30h-126.561z"/><path d="m94.731 212.857h126.561v30h-126.561z"/><path d="m94.731 149.071h126.561v30h-126.561z"/><path d="m94.731 85.286h126.561v30h-126.561z"/></g><path d="m313.675 276.642h95.627v30h-95.627z" fill="#3f4a4a"/><path d="m313.675 212.857h95.627v30h-95.627z" fill="#3f4a4a"/><path d="m313.675 85.286h95.627v30h-95.627z" fill="#3f4a4a"/><path d="m313.675 149.071h95.627v30h-95.627z" fill="#3f4a4a"/><g><path d="m298.675 50.63h30v410.74h-30z" fill="#cf5668"/></g></g></svg>