<svg id="Capa_1" enable-background="new 0 0 512 512" height="512" viewBox="0 0 512 512" width="512" xmlns="http://www.w3.org/2000/svg"><g><path d="m512 256c0 25.96-3.86 51.01-11.05 74.62-8.85 29.1-55.709-19.739-73.639 3.951-4.44 5.87 23.839 87.269 18.919 92.729-46.85 52.01-114.72 84.7-190.23 84.7s-143.38-32.69-190.23-84.7c-4.92-5.46 83.627-58.311 79.187-64.181-17.93-23.69-125.057-3.399-133.907-32.499-7.19-23.61-11.05-48.66-11.05-74.62 0-25.95 3.86-51.01 11.05-74.61 7.48-24.61 18.58-47.65 32.66-68.5 3.95-5.84 8.12-11.51 12.52-16.99 46.92-58.47 118.97-95.9 199.77-95.9s152.85 37.43 199.77 95.9c4.4 5.48 8.57 11.15 12.52 16.99 14.08 20.85 25.18 43.89 32.66 68.5 7.19 23.6 11.05 48.66 11.05 74.61z" fill="#ffd064"/><g><path d="m278.444 436.024c-14.584 4.723-30.304 4.723-44.888 0-6.324-2.048-10.636-7.902-10.636-14.549v-15.951c20.782 10.589 45.378 10.589 66.16 0v15.951c0 6.647-4.312 12.502-10.636 14.549z" fill="#da387d"/><path d="m500.95 136.64v193.98c-8.85 29.1-22.75 56-40.68 79.69-4.44 5.87-9.12 11.53-14.04 16.99h-380.46c-4.92-5.46-9.6-11.12-14.04-16.99-17.93-23.69-31.83-50.59-40.68-79.69v-193.98c0-13.12 10.63-23.75 23.75-23.75h442.4c13.12 0 23.75 10.63 23.75 23.75z" fill="#da387d"/><path d="m500.95 119.64v210.98c-8.85 29.1-22.75 56-40.68 79.69h-408.54c-17.93-23.69-31.83-50.59-40.68-79.69v-210.98c0-13.11 10.63-23.74 23.75-23.74h442.4c13.12 0 23.75 10.63 23.75 23.74z" fill="#dd5790"/><g><path d="m256 404.818s-51.869-20.968-200.279 0l-18.231-15.988 81.031-62.283 89.225-6.373 48.254 61" fill="#cbe2ff"/><path d="m256 404.818s51.869-20.968 200.279 0l18.231-15.989-81.031-62.283-89.225-6.373-48.254 61.001" fill="#cbe2ff"/><path d="m37.49 388.83c173.209-66.619 218.51 15.988 218.51 15.988l18.95-175.639-18.95-141.887s-45.301-82.607-218.51-15.989z" fill="#ddeafb"/><path d="m474.509 71.299v317.532c-84.765-32.609-138.902-29.47-172.075-17.768-23.217-23.217-46.435-3.242-46.435-3.242v-280.534s11.817-21.538 46.435-33.747c33.182-11.702 87.31-14.841 172.075 17.759z" fill="#ddeafb"/><path d="m302.434 53.54v317.522c-34.618 12.219-46.435 33.757-46.435 33.757v-317.532s11.817-21.538 46.435-33.747z" fill="#cbe2ff"/><g fill="#407093"><path d="m144.138 94.691c-23.936 1.359-50.253 6.48-78.527 15.235v20.992c44.029-14.254 97.899-24.173 140.924-8.863 11.6 4.127 20.262 9.318 26.547 14.165v-23.927c-5.2-2.987-11.137-5.845-17.883-8.366-20.452-7.644-44.363-10.751-71.061-9.236z"/><path d="m144.138 136.593c-23.936 1.359-50.253 6.48-78.527 15.235v20.992c44.029-14.254 97.899-24.173 140.924-8.863 11.6 4.127 20.262 9.318 26.547 14.165v-23.927c-5.2-2.987-11.137-5.845-17.883-8.366-20.452-7.645-44.363-10.752-71.061-9.236z"/><path d="m144.138 178.494c-23.936 1.359-50.253 6.48-78.527 15.235v20.992c44.029-14.254 97.899-24.173 140.924-8.863 11.6 4.127 20.262 9.318 26.547 14.165v-23.927c-5.2-2.987-11.137-5.845-17.883-8.366-20.452-7.645-44.363-10.751-71.061-9.236z"/><path d="m144.138 220.395c-23.936 1.359-50.253 6.48-78.527 15.235v20.992c44.029-14.254 97.899-24.173 140.924-8.863 11.6 4.127 20.262 9.318 26.547 14.165v-23.927c-5.2-2.987-11.137-5.845-17.883-8.366-20.452-7.644-44.363-10.751-71.061-9.236z"/><path d="m144.138 262.297c-23.936 1.359-50.253 6.48-78.527 15.235v20.992c44.029-14.254 97.899-24.173 140.924-8.863 11.6 4.127 20.262 9.318 26.547 14.165v-23.927c-5.2-2.987-11.137-5.845-17.883-8.366-20.452-7.645-44.363-10.752-71.061-9.236z"/><g><path d="m367.862 94.691c23.936 1.359 50.253 6.48 78.527 15.235v20.992c-44.029-14.254-97.899-24.173-140.924-8.863-11.6 4.127-20.262 9.318-26.547 14.165v-23.927c5.2-2.987 11.137-5.845 17.883-8.366 20.452-7.644 44.363-10.751 71.061-9.236z"/><path d="m367.862 136.593c23.936 1.359 50.253 6.48 78.527 15.235v20.992c-44.029-14.254-97.899-24.173-140.924-8.863-11.6 4.127-20.262 9.318-26.547 14.165v-23.927c5.2-2.987 11.137-5.845 17.883-8.366 20.452-7.645 44.363-10.752 71.061-9.236z"/><path d="m367.862 178.494c23.936 1.359 50.253 6.48 78.527 15.235v20.992c-44.029-14.254-97.899-24.173-140.924-8.863-11.6 4.127-20.262 9.318-26.547 14.165v-23.927c5.2-2.987 11.137-5.845 17.883-8.366 20.452-7.645 44.363-10.751 71.061-9.236z"/><path d="m367.862 220.395c23.936 1.359 50.253 6.48 78.527 15.235v20.992c-44.029-14.254-97.899-24.173-140.924-8.863-11.6 4.127-20.262 9.318-26.547 14.165v-23.927c5.2-2.987 11.137-5.845 17.883-8.366 20.452-7.644 44.363-10.751 71.061-9.236z"/><path d="m367.862 262.297c23.936 1.359 50.253 6.48 78.527 15.235v20.992c-44.029-14.254-97.899-24.173-140.924-8.863-11.6 4.127-20.262 9.318-26.547 14.165v-23.927c5.2-2.987 11.137-5.845 17.883-8.366 20.452-7.645 44.363-10.752 71.061-9.236z"/></g></g><path d="m226.738 60.734v86.458c-5.43-3.45-9.198-17.837-13.533-18.575-3.505-.597-13.437 6.615-16.917 5.725v-85.065c0-1.94 1.897-3.314 3.74-2.708l21.585 7.089c3.058 1.003 5.125 3.858 5.125 7.076z" fill="#dd5790"/></g></g></g></svg>